# Blender 4.0.2
# www.blender.org
mtllib part2.mtl
o Torus.001
v -9.322599 4.230149 15.066319
v -9.293659 4.225965 15.076898
v -9.272472 4.214534 15.105800
v -9.264718 4.198919 15.145280
v -9.272472 4.183304 15.184761
v -9.293659 4.171874 15.213661
v -9.322599 4.167689 15.224241
v -9.351542 4.171874 15.213661
v -9.372728 4.183304 15.184761
v -9.380483 4.198919 15.145280
v -9.372728 4.214534 15.105800
v -9.351542 4.225965 15.076898
v -9.322599 4.257849 15.202918
v -9.293658 4.253281 15.211607
v -9.272471 4.240803 15.235345
v -9.264717 4.223758 15.267772
v -9.272471 4.206713 15.300198
v -9.293658 4.194235 15.323936
v -9.322599 4.189667 15.332624
v -9.351542 4.194235 15.323936
v -9.372728 4.206713 15.300198
v -9.380483 4.223758 15.267772
v -9.372728 4.240803 15.235345
v -9.351542 4.253281 15.211607
v -9.322599 4.279900 15.350261
v -9.293658 4.275029 15.356911
v -9.272471 4.261717 15.375078
v -9.264717 4.243533 15.399898
v -9.272471 4.225349 15.424716
v -9.293658 4.212037 15.442884
v -9.322599 4.207165 15.449534
v -9.351542 4.212037 15.442884
v -9.372728 4.225349 15.424716
v -9.380483 4.243533 15.399898
v -9.372728 4.261717 15.375078
v -9.351542 4.275029 15.356911
v -9.322599 4.295927 15.505828
v -9.293658 4.290833 15.510325
v -9.272471 4.276915 15.522613
v -9.264717 4.257904 15.539399
v -9.272471 4.238892 15.556184
v -9.293658 4.224975 15.568472
v -9.322599 4.219882 15.572968
v -9.351542 4.224975 15.568472
v -9.372728 4.238892 15.556184
v -9.380483 4.257904 15.539399
v -9.372728 4.276915 15.522613
v -9.351542 4.290833 15.510325
v -9.322599 4.305654 15.666957
v -9.293658 4.300425 15.669225
v -9.272471 4.286140 15.675422
v -9.264717 4.266627 15.683887
v -9.272471 4.247113 15.692352
v -9.293658 4.232828 15.698549
v -9.322599 4.227599 15.700817
v -9.351542 4.232828 15.698549
v -9.372728 4.247113 15.692352
v -9.380483 4.266627 15.683887
v -9.372728 4.286140 15.675422
v -9.351542 4.300425 15.669225
v -9.322599 4.308915 15.830890
v -9.293658 4.303641 15.830890
v -9.272471 4.289233 15.830890
v -9.264717 4.269551 15.830890
v -9.272471 4.249869 15.830890
v -9.293658 4.235460 15.830890
v -9.322599 4.230186 15.830890
v -9.351542 4.235460 15.830890
v -9.372728 4.249869 15.830890
v -9.380483 4.269551 15.830890
v -9.372728 4.289233 15.830890
v -9.351542 4.303641 15.830890
v -9.322599 4.305654 15.994823
v -9.293658 4.300425 15.992556
v -9.272471 4.286140 15.986359
v -9.264717 4.266627 15.977894
v -9.272471 4.247113 15.969429
v -9.293658 4.232828 15.963232
v -9.322599 4.227599 15.960964
v -9.351542 4.232828 15.963232
v -9.372728 4.247113 15.969429
v -9.380483 4.266627 15.977894
v -9.372728 4.286140 15.986359
v -9.351542 4.300425 15.992556
v -9.322599 4.295927 16.155952
v -9.293658 4.290833 16.151455
v -9.272471 4.276915 16.139168
v -9.264717 4.257904 16.122381
v -9.272471 4.238892 16.105597
v -9.293658 4.224975 16.093309
v -9.322599 4.219882 16.088810
v -9.351542 4.224975 16.093309
v -9.372728 4.238892 16.105597
v -9.380483 4.257904 16.122381
v -9.372728 4.276915 16.139168
v -9.351542 4.290833 16.151455
v -9.322599 4.279900 16.311520
v -9.293658 4.275029 16.304871
v -9.272471 4.261717 16.286701
v -9.264717 4.243533 16.261883
v -9.272471 4.225349 16.237064
v -9.293658 4.212037 16.218895
v -9.322599 4.207165 16.212246
v -9.351542 4.212037 16.218895
v -9.372728 4.225349 16.237064
v -9.380483 4.243533 16.261883
v -9.372728 4.261717 16.286701
v -9.351542 4.275029 16.304871
v -9.322599 4.257849 16.458862
v -9.293658 4.253281 16.450174
v -9.272471 4.240803 16.426435
v -9.264717 4.223758 16.394009
v -9.272471 4.206713 16.361582
v -9.293658 4.194235 16.337843
v -9.322599 4.189667 16.329155
v -9.351542 4.194235 16.337843
v -9.372728 4.206713 16.361582
v -9.380483 4.223758 16.394009
v -9.372728 4.240803 16.426435
v -9.351542 4.253281 16.450174
v -9.322599 4.230149 16.595461
v -9.293658 4.225965 16.584883
v -9.272471 4.214534 16.555981
v -9.264717 4.198920 16.516500
v -9.272471 4.183304 16.477020
v -9.293658 4.171874 16.448118
v -9.322599 4.167689 16.437538
v -9.351542 4.171874 16.448118
v -9.372728 4.183304 16.477020
v -9.380483 4.198920 16.516500
v -9.372728 4.214534 16.555981
v -9.351542 4.225965 16.584883
v -9.322599 4.197276 16.718977
v -9.293658 4.193546 16.706690
v -9.272471 4.183358 16.673119
v -9.264717 4.169440 16.627260
v -9.272471 4.155523 16.581402
v -9.293658 4.145335 16.547831
v -9.322599 4.141606 16.535543
v -9.351542 4.145335 16.547831
v -9.372728 4.155523 16.581402
v -9.380483 4.169440 16.627260
v -9.372728 4.183358 16.673119
v -9.351542 4.193546 16.706690
v -9.322599 4.159790 16.827297
v -9.293658 4.156579 16.813511
v -9.272471 4.147808 16.775846
v -9.264717 4.135826 16.724394
v -9.272471 4.123845 16.672943
v -9.293658 4.115073 16.635277
v -9.322599 4.111863 16.621490
v -9.351542 4.115073 16.635277
v -9.372728 4.123845 16.672943
v -9.380483 4.135826 16.724394
v -9.372728 4.147808 16.775846
v -9.351542 4.156579 16.813511
v -9.322599 4.118334 16.918570
v -9.293658 4.115696 16.903521
v -9.272471 4.108492 16.862404
v -9.264717 4.098652 16.806240
v -9.272471 4.088810 16.750076
v -9.293658 4.081606 16.708960
v -9.322599 4.078970 16.693911
v -9.351542 4.081606 16.708960
v -9.372728 4.088810 16.750076
v -9.380483 4.098652 16.806240
v -9.372728 4.108492 16.862404
v -9.351542 4.115696 16.903521
v -9.322599 4.073617 16.991232
v -9.293658 4.071599 16.975178
v -9.272471 4.066085 16.931314
v -9.264717 4.058553 16.871397
v -9.272471 4.051021 16.811481
v -9.293658 4.045507 16.767618
v -9.322599 4.043489 16.751564
v -9.351542 4.045507 16.767618
v -9.372728 4.051021 16.811481
v -9.380483 4.058553 16.871397
v -9.372728 4.066085 16.931314
v -9.351542 4.071599 16.975178
v -9.322599 4.026405 17.044041
v -9.293658 4.025040 17.027254
v -9.272471 4.021310 16.981396
v -9.264717 4.016217 16.918753
v -9.272471 4.011122 16.856108
v -9.293658 4.007393 16.810249
v -9.322599 4.006028 16.793465
v -9.351542 4.007393 16.810249
v -9.372728 4.011122 16.856108
v -9.380483 4.016217 16.918753
v -9.372728 4.021310 16.981396
v -9.351542 4.025040 17.027254
v -9.322599 3.977505 17.039780
v -9.293658 3.976817 17.058861
v -9.272471 3.974936 17.011791
v -9.264717 3.972367 16.947493
v -9.272471 3.969798 16.883194
v -9.293658 3.967917 16.836124
v -9.322599 3.967228 16.818895
v -9.351542 3.967917 16.836124
v -9.372728 3.969798 16.883194
v -9.380483 3.972367 16.947493
v -9.372728 3.974936 17.011791
v -9.351542 3.976817 17.058861
v -9.322599 3.927753 17.051863
v -9.299088 3.927753 17.048380
v -9.281878 3.927753 17.009813
v -9.275578 3.927753 16.957129
v -9.281878 3.927753 16.904442
v -9.299088 3.927753 16.865873
v -9.322599 3.927753 16.851757
v -9.346111 3.927753 16.865873
v -9.363322 3.927753 16.904442
v -9.369622 3.927753 16.957129
v -9.363322 3.927753 17.009813
v -9.346111 3.927753 17.048380
vn -0.0000 0.1362 -0.9907
vn -0.0000 0.9841 -0.1776
vn 0.4196 0.8936 -0.1596
vn 0.5324 0.0327 -0.8459
vn 0.8097 0.5783 -0.0995
vn 0.8024 -0.2206 -0.5545
vn 0.9999 0.0119 0.0030
vn 0.7930 -0.5276 -0.3048
vn 0.8148 -0.5706 0.1023
vn 0.5881 -0.7958 -0.1447
vn 0.4171 -0.8955 0.1552
vn 0.3055 -0.9504 -0.0582
vn -0.0000 -0.9856 0.1693
vn -0.0000 -0.9997 -0.0254
vn -0.4171 -0.8955 0.1552
vn -0.3055 -0.9504 -0.0582
vn -0.8148 -0.5706 0.1023
vn -0.5881 -0.7957 -0.1447
vn -0.9999 0.0119 0.0030
vn -0.7930 -0.5276 -0.3048
vn -0.8097 0.5783 -0.0995
vn -0.8024 -0.2206 -0.5545
vn -0.4196 0.8936 -0.1596
vn -0.5324 0.0327 -0.8459
vn -0.0000 0.9918 -0.1282
vn 0.4010 0.9086 -0.1166
vn 0.7966 0.5999 -0.0742
vn 1.0000 0.0094 0.0030
vn 0.8008 -0.5941 0.0762
vn 0.4002 -0.9095 0.1128
vn -0.0000 -0.9925 0.1224
vn -0.4001 -0.9095 0.1128
vn -0.8008 -0.5941 0.0762
vn -1.0000 0.0094 0.0030
vn -0.7966 0.5999 -0.0742
vn -0.4010 0.9086 -0.1166
vn -0.0000 0.9965 -0.0832
vn 0.3882 0.9184 -0.0763
vn 0.7870 0.6149 -0.0493
vn 1.0000 0.0071 0.0026
vn 0.7908 -0.6100 0.0505
vn 0.3887 -0.9184 0.0736
vn -0.0000 -0.9968 0.0795
vn -0.3887 -0.9184 0.0736
vn -0.7908 -0.6100 0.0505
vn -1.0000 0.0071 0.0026
vn -0.7870 0.6149 -0.0493
vn -0.3882 0.9184 -0.0763
vn -0.0000 0.9992 -0.0410
vn 0.3806 0.9240 -0.0378
vn 0.7812 0.6238 -0.0246
vn 1.0000 0.0053 0.0015
vn 0.7848 -0.6192 0.0251
vn 0.3821 -0.9234 0.0363
vn -0.0000 -0.9992 0.0392
vn -0.3821 -0.9234 0.0363
vn -0.7848 -0.6192 0.0251
vn -1.0000 0.0053 0.0015
vn -0.7812 0.6238 -0.0246
vn -0.3806 0.9240 -0.0378
vn -0.0000 1.0000 -0.0000
vn 0.3781 0.9258 -0.0000
vn 0.7792 0.6267 -0.0000
vn 1.0000 0.0047 -0.0000
vn 0.7829 -0.6222 -0.0000
vn 0.3799 -0.9250 -0.0000
vn -0.0000 -1.0000 -0.0000
vn -0.3799 -0.9250 -0.0000
vn -0.7829 -0.6222 -0.0000
vn -1.0000 0.0046 -0.0000
vn -0.7792 0.6267 -0.0000
vn -0.3781 0.9258 -0.0000
vn -0.0000 0.9992 0.0410
vn 0.3806 0.9240 0.0378
vn 0.7812 0.6238 0.0246
vn 1.0000 0.0053 -0.0015
vn 0.7848 -0.6192 -0.0251
vn 0.3821 -0.9234 -0.0363
vn -0.0000 -0.9992 -0.0392
vn -0.3821 -0.9234 -0.0363
vn -0.7848 -0.6192 -0.0251
vn -1.0000 0.0053 -0.0015
vn -0.7812 0.6238 0.0246
vn -0.3806 0.9240 0.0378
vn -0.0000 0.9965 0.0832
vn 0.3882 0.9184 0.0763
vn 0.7870 0.6149 0.0493
vn 1.0000 0.0071 -0.0026
vn 0.7908 -0.6100 -0.0505
vn 0.3887 -0.9184 -0.0736
vn -0.0000 -0.9968 -0.0795
vn -0.3887 -0.9184 -0.0736
vn -0.7908 -0.6100 -0.0505
vn -1.0000 0.0071 -0.0026
vn -0.7870 0.6149 0.0493
vn -0.3882 0.9184 0.0763
vn -0.0000 0.9918 0.1282
vn 0.4010 0.9086 0.1166
vn 0.7966 0.5999 0.0742
vn 1.0000 0.0094 -0.0030
vn 0.8008 -0.5941 -0.0762
vn 0.4001 -0.9095 -0.1128
vn -0.0000 -0.9925 -0.1224
vn -0.4002 -0.9095 -0.1128
vn -0.8008 -0.5941 -0.0762
vn -1.0000 0.0094 -0.0030
vn -0.7966 0.5999 0.0742
vn -0.4010 0.9086 0.1166
vn -0.0000 0.9841 0.1776
vn 0.4196 0.8936 0.1596
vn 0.8098 0.5783 0.0995
vn 0.9999 0.0119 -0.0030
vn 0.8148 -0.5706 -0.1023
vn 0.4171 -0.8955 -0.1552
vn -0.0000 -0.9856 -0.1693
vn -0.4171 -0.8955 -0.1552
vn -0.8148 -0.5706 -0.1023
vn -0.9999 0.0119 -0.0030
vn -0.8097 0.5783 0.0995
vn -0.4196 0.8936 0.1596
vn -0.0000 0.9723 0.2337
vn 0.4444 0.8717 0.2067
vn 0.8263 0.5491 0.1253
vn 0.9999 0.0143 -0.0026
vn 0.8327 -0.5386 -0.1286
vn 0.4405 -0.8747 -0.2019
vn -0.0000 -0.9750 -0.2223
vn -0.4405 -0.8747 -0.2019
vn -0.8327 -0.5386 -0.1286
vn -0.9999 0.0143 -0.0026
vn -0.8263 0.5491 0.1253
vn -0.4444 0.8717 0.2067
vn -0.0000 0.9540 0.2999
vn 0.4762 0.8402 0.2595
vn 0.8460 0.5111 0.1516
vn 0.9999 0.0166 -0.0017
vn 0.8541 -0.4965 -0.1550
vn 0.4714 -0.8444 -0.2546
vn -0.0000 -0.9586 -0.2846
vn -0.4714 -0.8444 -0.2546
vn -0.8541 -0.4965 -0.1550
vn -0.9999 0.0166 -0.0017
vn -0.8460 0.5111 0.1516
vn -0.4762 0.8402 0.2595
vn -0.0000 0.9247 0.3807
vn 0.5155 0.7949 0.3199
vn 0.8683 0.4629 0.1784
vn 0.9998 0.0186 -0.0004
vn 0.8783 -0.4426 -0.1809
vn 0.5112 -0.7996 -0.3151
vn -0.0000 -0.9328 -0.3604
vn -0.5112 -0.7996 -0.3151
vn -0.8783 -0.4426 -0.1809
vn -0.9998 0.0186 -0.0004
vn -0.8683 0.4629 0.1784
vn -0.5155 0.7949 0.3199
vn -0.0000 0.8758 0.4827
vn 0.5623 0.7292 0.3899
vn 0.8922 0.4024 0.2053
vn 0.9998 0.0200 0.0016
vn 0.9039 -0.3754 -0.2050
vn 0.5611 -0.7327 -0.3852
vn -0.0000 -0.8899 -0.4562
vn -0.5611 -0.7327 -0.3852
vn -0.9039 -0.3754 -0.2050
vn -0.9998 0.0200 0.0016
vn -0.8922 0.4024 0.2053
vn -0.5623 0.7292 0.3900
vn -0.0000 0.7898 0.6134
vn 0.6150 0.6322 0.4713
vn 0.9160 0.3274 0.2317
vn 0.9998 0.0202 0.0045
vn 0.9288 -0.2941 -0.2256
vn 0.6212 -0.6308 -0.4649
vn -0.0000 -0.8141 -0.5808
vn -0.6212 -0.6308 -0.4649
vn -0.9288 -0.2941 -0.2256
vn -0.9998 0.0202 0.0044
vn -0.9160 0.3275 0.2317
vn -0.6150 0.6322 0.4712
vn -0.0000 0.4944 0.8692
vn 0.5960 0.4677 0.6527
vn 0.9374 0.2357 0.2564
vn 0.9998 0.0182 0.0086
vn 0.9499 -0.2004 -0.2398
vn 0.6874 -0.4769 -0.5478
vn -0.0000 -0.6721 -0.7405
vn -0.6874 -0.4769 -0.5478
vn -0.9499 -0.2004 -0.2398
vn -0.9998 0.0182 0.0086
vn -0.9374 0.2357 0.2564
vn -0.5960 0.4677 0.6527
vn -0.0000 0.1603 0.9871
vn 0.4483 0.0993 0.8884
vn 0.9568 -0.0006 0.2907
vn 0.9942 -0.1061 0.0171
vn 0.9402 -0.2387 -0.2429
vn 0.6903 -0.4386 -0.5754
vn -0.0000 -0.5857 -0.8105
vn -0.6903 -0.4386 -0.5754
vn -0.9402 -0.2387 -0.2429
vn -0.9942 -0.1061 0.0171
vn -0.9568 -0.0006 0.2907
vn -0.4483 0.0993 0.8884
vn -0.0000 -0.6829 0.7305
vn 0.3063 -0.6928 0.6528
vn 0.6411 -0.7457 0.1817
vn 0.6470 -0.7624 0.0139
vn 0.6053 -0.7839 -0.1385
vn 0.4652 -0.8166 -0.3417
vn -0.0000 -0.8483 -0.5295
vn -0.4652 -0.8166 -0.3417
vn -0.6053 -0.7839 -0.1385
vn -0.6470 -0.7624 0.0139
vn -0.6411 -0.7457 0.1817
vn -0.3063 -0.6928 0.6528
s 1
usemtl Material.014
f 1//1 13//2 14//3 2//4
f 2//4 14//3 15//5 3//6
f 3//6 15//5 16//7 4//8
f 4//8 16//7 17//9 5//10
f 5//10 17//9 18//11 6//12
f 6//12 18//11 19//13 7//14
f 7//14 19//13 20//15 8//16
f 8//16 20//15 21//17 9//18
f 9//18 21//17 22//19 10//20
f 10//20 22//19 23//21 11//22
f 11//22 23//21 24//23 12//24
f 12//24 24//23 13//2 1//1
f 13//2 25//25 26//26 14//3
f 14//3 26//26 27//27 15//5
f 15//5 27//27 28//28 16//7
f 16//7 28//28 29//29 17//9
f 17//9 29//29 30//30 18//11
f 18//11 30//30 31//31 19//13
f 19//13 31//31 32//32 20//15
f 20//15 32//32 33//33 21//17
f 21//17 33//33 34//34 22//19
f 22//19 34//34 35//35 23//21
f 23//21 35//35 36//36 24//23
f 24//23 36//36 25//25 13//2
f 25//25 37//37 38//38 26//26
f 26//26 38//38 39//39 27//27
f 27//27 39//39 40//40 28//28
f 28//28 40//40 41//41 29//29
f 29//29 41//41 42//42 30//30
f 30//30 42//42 43//43 31//31
f 31//31 43//43 44//44 32//32
f 32//32 44//44 45//45 33//33
f 33//33 45//45 46//46 34//34
f 34//34 46//46 47//47 35//35
f 35//35 47//47 48//48 36//36
f 36//36 48//48 37//37 25//25
f 37//37 49//49 50//50 38//38
f 38//38 50//50 51//51 39//39
f 39//39 51//51 52//52 40//40
f 40//40 52//52 53//53 41//41
f 41//41 53//53 54//54 42//42
f 42//42 54//54 55//55 43//43
f 43//43 55//55 56//56 44//44
f 44//44 56//56 57//57 45//45
f 45//45 57//57 58//58 46//46
f 46//46 58//58 59//59 47//47
f 47//47 59//59 60//60 48//48
f 48//48 60//60 49//49 37//37
f 49//49 61//61 62//62 50//50
f 50//50 62//62 63//63 51//51
f 51//51 63//63 64//64 52//52
f 52//52 64//64 65//65 53//53
f 53//53 65//65 66//66 54//54
f 54//54 66//66 67//67 55//55
f 55//55 67//67 68//68 56//56
f 56//56 68//68 69//69 57//57
f 57//57 69//69 70//70 58//58
f 58//58 70//70 71//71 59//59
f 59//59 71//71 72//72 60//60
f 60//60 72//72 61//61 49//49
f 61//61 73//73 74//74 62//62
f 62//62 74//74 75//75 63//63
f 63//63 75//75 76//76 64//64
f 64//64 76//76 77//77 65//65
f 65//65 77//77 78//78 66//66
f 66//66 78//78 79//79 67//67
f 67//67 79//79 80//80 68//68
f 68//68 80//80 81//81 69//69
f 69//69 81//81 82//82 70//70
f 70//70 82//82 83//83 71//71
f 71//71 83//83 84//84 72//72
f 72//72 84//84 73//73 61//61
f 73//73 85//85 86//86 74//74
f 74//74 86//86 87//87 75//75
f 75//75 87//87 88//88 76//76
f 76//76 88//88 89//89 77//77
f 77//77 89//89 90//90 78//78
f 78//78 90//90 91//91 79//79
f 79//79 91//91 92//92 80//80
f 80//80 92//92 93//93 81//81
f 81//81 93//93 94//94 82//82
f 82//82 94//94 95//95 83//83
f 83//83 95//95 96//96 84//84
f 84//84 96//96 85//85 73//73
f 85//85 97//97 98//98 86//86
f 86//86 98//98 99//99 87//87
f 87//87 99//99 100//100 88//88
f 88//88 100//100 101//101 89//89
f 89//89 101//101 102//102 90//90
f 90//90 102//102 103//103 91//91
f 91//91 103//103 104//104 92//92
f 92//92 104//104 105//105 93//93
f 93//93 105//105 106//106 94//94
f 94//94 106//106 107//107 95//95
f 95//95 107//107 108//108 96//96
f 96//96 108//108 97//97 85//85
f 97//97 109//109 110//110 98//98
f 98//98 110//110 111//111 99//99
f 99//99 111//111 112//112 100//100
f 100//100 112//112 113//113 101//101
f 101//101 113//113 114//114 102//102
f 102//102 114//114 115//115 103//103
f 103//103 115//115 116//116 104//104
f 104//104 116//116 117//117 105//105
f 105//105 117//117 118//118 106//106
f 106//106 118//118 119//119 107//107
f 107//107 119//119 120//120 108//108
f 108//108 120//120 109//109 97//97
f 109//109 121//121 122//122 110//110
f 110//110 122//122 123//123 111//111
f 111//111 123//123 124//124 112//112
f 112//112 124//124 125//125 113//113
f 113//113 125//125 126//126 114//114
f 114//114 126//126 127//127 115//115
f 115//115 127//127 128//128 116//116
f 116//116 128//128 129//129 117//117
f 117//117 129//129 130//130 118//118
f 118//118 130//130 131//131 119//119
f 119//119 131//131 132//132 120//120
f 120//120 132//132 121//121 109//109
f 121//121 133//133 134//134 122//122
f 122//122 134//134 135//135 123//123
f 123//123 135//135 136//136 124//124
f 124//124 136//136 137//137 125//125
f 125//125 137//137 138//138 126//126
f 126//126 138//138 139//139 127//127
f 127//127 139//139 140//140 128//128
f 128//128 140//140 141//141 129//129
f 129//129 141//141 142//142 130//130
f 130//130 142//142 143//143 131//131
f 131//131 143//143 144//144 132//132
f 132//132 144//144 133//133 121//121
f 133//133 145//145 146//146 134//134
f 134//134 146//146 147//147 135//135
f 135//135 147//147 148//148 136//136
f 136//136 148//148 149//149 137//137
f 137//137 149//149 150//150 138//138
f 138//138 150//150 151//151 139//139
f 139//139 151//151 152//152 140//140
f 140//140 152//152 153//153 141//141
f 141//141 153//153 154//154 142//142
f 142//142 154//154 155//155 143//143
f 143//143 155//155 156//156 144//144
f 144//144 156//156 145//145 133//133
f 145//145 157//157 158//158 146//146
f 146//146 158//158 159//159 147//147
f 147//147 159//159 160//160 148//148
f 148//148 160//160 161//161 149//149
f 149//149 161//161 162//162 150//150
f 150//150 162//162 163//163 151//151
f 151//151 163//163 164//164 152//152
f 152//152 164//164 165//165 153//153
f 153//153 165//165 166//166 154//154
f 154//154 166//166 167//167 155//155
f 155//155 167//167 168//168 156//156
f 156//156 168//168 157//157 145//145
f 157//157 169//169 170//170 158//158
f 158//158 170//170 171//171 159//159
f 159//159 171//171 172//172 160//160
f 160//160 172//172 173//173 161//161
f 161//161 173//173 174//174 162//162
f 162//162 174//174 175//175 163//163
f 163//163 175//175 176//176 164//164
f 164//164 176//176 177//177 165//165
f 165//165 177//177 178//178 166//166
f 166//166 178//178 179//179 167//167
f 167//167 179//179 180//180 168//168
f 168//168 180//180 169//169 157//157
f 169//169 181//181 182//182 170//170
f 170//170 182//182 183//183 171//171
f 171//171 183//183 184//184 172//172
f 172//172 184//184 185//185 173//173
f 173//173 185//185 186//186 174//174
f 174//174 186//186 187//187 175//175
f 175//175 187//187 188//188 176//176
f 176//176 188//188 189//189 177//177
f 177//177 189//189 190//190 178//178
f 178//178 190//190 191//191 179//179
f 179//179 191//191 192//192 180//180
f 180//180 192//192 181//181 169//169
f 181//181 193//193 194//194 182//182
f 182//182 194//194 195//195 183//183
f 183//183 195//195 196//196 184//184
f 184//184 196//196 197//197 185//185
f 185//185 197//197 198//198 186//186
f 186//186 198//198 199//199 187//187
f 187//187 199//199 200//200 188//188
f 188//188 200//200 201//201 189//189
f 189//189 201//201 202//202 190//190
f 190//190 202//202 203//203 191//191
f 191//191 203//203 204//204 192//192
f 192//192 204//204 193//193 181//181
f 193//193 205//205 206//206 194//194
f 194//194 206//206 207//207 195//195
f 195//195 207//207 208//208 196//196
f 196//196 208//208 209//209 197//197
f 197//197 209//209 210//210 198//198
f 198//198 210//210 211//211 199//199
f 199//199 211//211 212//212 200//200
f 200//200 212//212 213//213 201//201
f 201//201 213//213 214//214 202//202
f 202//202 214//214 215//215 203//203
f 203//203 215//215 216//216 204//204
f 204//204 216//216 205//205 193//193
f 213//213 212//212 211//211 210//210 209//209 208//208 207//207 206//206 205//205 216//216 215//215 214//214
f 12//24 1//1 2//4 3//6 4//8 5//10 6//12 7//14 8//16 9//18 10//20 11//22
