# Blender 4.0.2
# www.blender.org
mtllib part3.mtl
o Sphere_Sphere.001
v -9.322601 4.500555 17.015190
v -9.322601 4.473706 17.055374
v -9.322601 4.433522 17.082222
v -9.322601 4.386122 17.091652
v -9.322601 4.338723 17.082222
v -9.322601 4.298539 17.055374
v -9.322601 4.271689 17.015190
v -9.340740 4.500555 17.011581
v -9.356117 4.473706 17.048706
v -9.366393 4.433522 17.073511
v -9.370001 4.386122 17.082222
v -9.366393 4.338723 17.073511
v -9.356117 4.298539 17.048706
v -9.340740 4.271689 17.011581
v -9.356117 4.500555 17.001307
v -9.384532 4.473706 17.029720
v -9.403518 4.433522 17.048706
v -9.410185 4.386122 17.055374
v -9.403518 4.338723 17.048706
v -9.384532 4.298539 17.029720
v -9.356117 4.271689 17.001307
v -9.366393 4.500555 16.985929
v -9.403518 4.473706 17.001307
v -9.428324 4.433522 17.011581
v -9.437035 4.386122 17.015190
v -9.428324 4.338723 17.011581
v -9.403518 4.298539 17.001307
v -9.366393 4.271689 16.985929
v -9.370001 4.500555 16.967791
v -9.410185 4.473706 16.967791
v -9.437035 4.433522 16.967791
v -9.446463 4.386122 16.967791
v -9.437035 4.338723 16.967791
v -9.410185 4.298539 16.967791
v -9.370001 4.271689 16.967791
v -9.322601 4.509984 16.967791
v -9.366393 4.500555 16.949652
v -9.403518 4.473706 16.934273
v -9.428324 4.433522 16.923998
v -9.437035 4.386122 16.920389
v -9.428324 4.338723 16.923998
v -9.403518 4.298539 16.934273
v -9.366393 4.271689 16.949652
v -9.356117 4.500555 16.934273
v -9.384532 4.473706 16.905859
v -9.403518 4.433522 16.886873
v -9.410185 4.386122 16.880207
v -9.403518 4.338723 16.886873
v -9.384532 4.298539 16.905859
v -9.356117 4.271689 16.934273
v -9.340740 4.500555 16.923998
v -9.356117 4.473706 16.886873
v -9.366393 4.433522 16.862068
v -9.370001 4.386122 16.853357
v -9.366393 4.338723 16.862068
v -9.356117 4.298539 16.886873
v -9.340740 4.271689 16.923998
v -9.322601 4.500555 16.920389
v -9.322601 4.473706 16.880207
v -9.322601 4.433522 16.853357
v -9.322601 4.386122 16.843927
v -9.322601 4.338723 16.853357
v -9.322601 4.298539 16.880207
v -9.322601 4.271689 16.920389
v -9.304461 4.500555 16.923998
v -9.289084 4.473706 16.886873
v -9.278810 4.433522 16.862068
v -9.275202 4.386122 16.853357
v -9.278810 4.338723 16.862068
v -9.289084 4.298539 16.886873
v -9.304461 4.271689 16.923998
v -9.289084 4.500555 16.934273
v -9.260671 4.473706 16.905859
v -9.241685 4.433522 16.886873
v -9.235018 4.386122 16.880207
v -9.241685 4.338723 16.886873
v -9.260671 4.298539 16.905859
v -9.289084 4.271689 16.934273
v -9.278810 4.500555 16.949652
v -9.241685 4.473706 16.934273
v -9.216879 4.433522 16.923998
v -9.208168 4.386122 16.920389
v -9.216879 4.338723 16.923998
v -9.241685 4.298539 16.934273
v -9.278810 4.271689 16.949652
v -9.275202 4.500555 16.967791
v -9.235018 4.473706 16.967791
v -9.208168 4.433522 16.967791
v -9.198740 4.386122 16.967791
v -9.208168 4.338723 16.967791
v -9.235018 4.298539 16.967791
v -9.275202 4.271689 16.967791
v -9.278810 4.500555 16.985929
v -9.241685 4.473706 17.001307
v -9.216879 4.433522 17.011581
v -9.208168 4.386122 17.015190
v -9.216879 4.338723 17.011581
v -9.241685 4.298539 17.001307
v -9.278810 4.271689 16.985929
v -9.322601 4.262261 16.967791
v -9.289084 4.500555 17.001307
v -9.260671 4.473706 17.029720
v -9.241685 4.433522 17.048706
v -9.235018 4.386122 17.055374
v -9.241685 4.338723 17.048706
v -9.260671 4.298539 17.029720
v -9.289084 4.271689 17.001307
v -9.304461 4.500555 17.011581
v -9.289084 4.473706 17.048706
v -9.278810 4.433522 17.073511
v -9.275202 4.386122 17.082222
v -9.278810 4.338723 17.073511
v -9.289084 4.298539 17.048706
v -9.304461 4.271689 17.011581
vn -0.0000 -0.3744 0.9273
vn -0.0000 -0.0000 1.0000
vn -0.3827 -0.0000 0.9239
vn -0.3549 -0.3744 0.8567
vn -0.0000 -0.9152 0.4031
vn -0.0000 -0.6951 0.7189
vn -0.2751 -0.6952 0.6641
vn -0.1543 -0.9152 0.3724
vn -0.0000 0.6952 0.7189
vn -0.0000 0.9152 0.4031
vn -0.1543 0.9152 0.3724
vn -0.2751 0.6952 0.6641
vn -0.0000 0.3744 0.9273
vn -0.3549 0.3744 0.8567
vn -0.2850 0.9152 0.2850
vn -0.5083 0.6952 0.5083
vn -0.6557 0.3744 0.6557
vn -0.7071 -0.0000 0.7071
vn -0.6557 -0.3744 0.6557
vn -0.5083 -0.6952 0.5083
vn -0.2850 -0.9152 0.2850
vn -0.3724 0.9152 0.1543
vn -0.6641 0.6952 0.2751
vn -0.8567 0.3744 0.3549
vn -0.9239 -0.0000 0.3827
vn -0.8567 -0.3744 0.3549
vn -0.6641 -0.6952 0.2751
vn -0.3724 -0.9152 0.1543
vn -0.4031 0.9152 -0.0000
vn -0.7189 0.6952 -0.0000
vn -0.9273 0.3744 -0.0000
vn -1.0000 -0.0000 -0.0000
vn -0.9273 -0.3744 -0.0000
vn -0.7189 -0.6952 -0.0000
vn -0.4031 -0.9152 -0.0000
vn -0.3724 0.9152 -0.1543
vn -0.6641 0.6952 -0.2751
vn -0.8567 0.3744 -0.3549
vn -0.9239 -0.0000 -0.3827
vn -0.8567 -0.3744 -0.3549
vn -0.6641 -0.6952 -0.2751
vn -0.3724 -0.9152 -0.1543
vn -0.2850 0.9152 -0.2850
vn -0.5083 0.6952 -0.5083
vn -0.6557 0.3744 -0.6557
vn -0.7071 -0.0000 -0.7071
vn -0.6557 -0.3744 -0.6557
vn -0.5083 -0.6952 -0.5083
vn -0.2850 -0.9152 -0.2850
vn -0.1543 0.9152 -0.3724
vn -0.2751 0.6952 -0.6641
vn -0.3549 0.3744 -0.8567
vn -0.3827 -0.0000 -0.9239
vn -0.3548 -0.3744 -0.8567
vn -0.2751 -0.6952 -0.6641
vn -0.1543 -0.9152 -0.3724
vn -0.0000 0.9152 -0.4031
vn -0.0000 0.6952 -0.7189
vn -0.0000 0.3744 -0.9273
vn -0.0000 -0.0000 -1.0000
vn -0.0000 -0.3744 -0.9273
vn -0.0000 -0.6952 -0.7189
vn -0.0000 -0.9152 -0.4031
vn 0.1543 0.9152 -0.3724
vn 0.2751 0.6952 -0.6641
vn 0.3549 0.3744 -0.8567
vn 0.3827 -0.0000 -0.9239
vn 0.3549 -0.3744 -0.8567
vn 0.2751 -0.6952 -0.6641
vn 0.1543 -0.9152 -0.3724
vn 0.2850 0.9152 -0.2850
vn 0.5083 0.6952 -0.5083
vn 0.6557 0.3744 -0.6557
vn 0.7071 -0.0000 -0.7071
vn 0.6557 -0.3744 -0.6557
vn 0.5083 -0.6952 -0.5083
vn 0.2850 -0.9152 -0.2850
vn 0.3724 0.9152 -0.1543
vn 0.6641 0.6952 -0.2751
vn 0.8567 0.3744 -0.3549
vn 0.9239 -0.0000 -0.3827
vn 0.8567 -0.3744 -0.3549
vn 0.6641 -0.6952 -0.2751
vn 0.3724 -0.9152 -0.1543
vn 0.4031 0.9152 -0.0000
vn 0.7189 0.6952 -0.0000
vn 0.9273 0.3744 -0.0000
vn 1.0000 -0.0000 -0.0000
vn 0.9273 -0.3744 -0.0000
vn 0.7189 -0.6952 -0.0000
vn 0.4031 -0.9152 -0.0000
vn 0.3724 0.9152 0.1543
vn 0.6641 0.6952 0.2751
vn 0.8567 0.3744 0.3549
vn 0.9239 -0.0000 0.3827
vn 0.8567 -0.3744 0.3549
vn 0.6641 -0.6952 0.2751
vn 0.3724 -0.9152 0.1543
vn 0.2850 0.9152 0.2850
vn 0.5083 0.6952 0.5083
vn 0.6557 0.3744 0.6557
vn 0.7071 -0.0000 0.7071
vn 0.6557 -0.3744 0.6557
vn 0.5083 -0.6952 0.5083
vn 0.2850 -0.9152 0.2850
vn 0.1543 0.9152 0.3724
vn 0.2751 0.6952 0.6641
vn 0.3549 0.3744 0.8567
vn 0.3827 -0.0000 0.9239
vn 0.3549 -0.3744 0.8567
vn 0.2751 -0.6952 0.6641
vn 0.1543 -0.9152 0.3724
vn -0.0000 1.0000 -0.0000
vn -0.0000 -1.0000 -0.0000
s 1
usemtl Material.015
f 5//1 4//2 11//3 12//4
f 7//5 6//6 13//7 14//8
f 2//9 1//10 8//11 9//12
f 4//2 3//13 10//14 11//3
f 6//6 5//1 12//4 13//7
f 3//13 2//9 9//12 10//14
f 9//12 8//11 15//15 16//16
f 11//3 10//14 17//17 18//18
f 13//7 12//4 19//19 20//20
f 10//14 9//12 16//16 17//17
f 12//4 11//3 18//18 19//19
f 14//8 13//7 20//20 21//21
f 16//16 15//15 22//22 23//23
f 18//18 17//17 24//24 25//25
f 20//20 19//19 26//26 27//27
f 17//17 16//16 23//23 24//24
f 19//19 18//18 25//25 26//26
f 21//21 20//20 27//27 28//28
f 23//23 22//22 29//29 30//30
f 25//25 24//24 31//31 32//32
f 27//27 26//26 33//33 34//34
f 24//24 23//23 30//30 31//31
f 26//26 25//25 32//32 33//33
f 28//28 27//27 34//34 35//35
f 30//30 29//29 37//36 38//37
f 32//32 31//31 39//38 40//39
f 34//34 33//33 41//40 42//41
f 31//31 30//30 38//37 39//38
f 33//33 32//32 40//39 41//40
f 35//35 34//34 42//41 43//42
f 38//37 37//36 44//43 45//44
f 40//39 39//38 46//45 47//46
f 42//41 41//40 48//47 49//48
f 39//38 38//37 45//44 46//45
f 41//40 40//39 47//46 48//47
f 43//42 42//41 49//48 50//49
f 45//44 44//43 51//50 52//51
f 47//46 46//45 53//52 54//53
f 49//48 48//47 55//54 56//55
f 46//45 45//44 52//51 53//52
f 48//47 47//46 54//53 55//54
f 50//49 49//48 56//55 57//56
f 52//51 51//50 58//57 59//58
f 54//53 53//52 60//59 61//60
f 56//55 55//54 62//61 63//62
f 53//52 52//51 59//58 60//59
f 55//54 54//53 61//60 62//61
f 57//56 56//55 63//62 64//63
f 59//58 58//57 65//64 66//65
f 61//60 60//59 67//66 68//67
f 63//62 62//61 69//68 70//69
f 60//59 59//58 66//65 67//66
f 62//61 61//60 68//67 69//68
f 64//63 63//62 70//69 71//70
f 66//65 65//64 72//71 73//72
f 68//67 67//66 74//73 75//74
f 70//69 69//68 76//75 77//76
f 67//66 66//65 73//72 74//73
f 69//68 68//67 75//74 76//75
f 71//70 70//69 77//76 78//77
f 73//72 72//71 79//78 80//79
f 75//74 74//73 81//80 82//81
f 77//76 76//75 83//82 84//83
f 74//73 73//72 80//79 81//80
f 76//75 75//74 82//81 83//82
f 78//77 77//76 84//83 85//84
f 80//79 79//78 86//85 87//86
f 82//81 81//80 88//87 89//88
f 84//83 83//82 90//89 91//90
f 81//80 80//79 87//86 88//87
f 83//82 82//81 89//88 90//89
f 85//84 84//83 91//90 92//91
f 87//86 86//85 93//92 94//93
f 89//88 88//87 95//94 96//95
f 91//90 90//89 97//96 98//97
f 88//87 87//86 94//93 95//94
f 90//89 89//88 96//95 97//96
f 92//91 91//90 98//97 99//98
f 94//93 93//92 101//99 102//100
f 96//95 95//94 103//101 104//102
f 98//97 97//96 105//103 106//104
f 95//94 94//93 102//100 103//101
f 97//96 96//95 104//102 105//103
f 99//98 98//97 106//104 107//105
f 102//100 101//99 108//106 109//107
f 104//102 103//101 110//108 111//109
f 106//104 105//103 112//110 113//111
f 103//101 102//100 109//107 110//108
f 105//103 104//102 111//109 112//110
f 107//105 106//104 113//111 114//112
f 1//10 36//113 8//11
f 100//114 7//5 14//8
f 8//11 36//113 15//15
f 100//114 14//8 21//21
f 15//15 36//113 22//22
f 100//114 21//21 28//28
f 22//22 36//113 29//29
f 100//114 28//28 35//35
f 29//29 36//113 37//36
f 100//114 35//35 43//42
f 37//36 36//113 44//43
f 100//114 43//42 50//49
f 44//43 36//113 51//50
f 100//114 50//49 57//56
f 51//50 36//113 58//57
f 100//114 57//56 64//63
f 58//57 36//113 65//64
f 100//114 64//63 71//70
f 65//64 36//113 72//71
f 100//114 71//70 78//77
f 72//71 36//113 79//78
f 100//114 78//77 85//84
f 79//78 36//113 86//85
f 100//114 85//84 92//91
f 86//85 36//113 93//92
f 100//114 92//91 99//98
f 93//92 36//113 101//99
f 100//114 99//98 107//105
f 101//99 36//113 108//106
f 100//114 107//105 114//112
f 109//107 108//106 1//10 2//9
f 111//109 110//108 3//13 4//2
f 113//111 112//110 5//1 6//6
f 108//106 36//113 1//10
f 100//114 114//112 7//5
f 110//108 109//107 2//9 3//13
f 112//110 111//109 4//2 5//1
f 114//112 113//111 6//6 7//5
