# Blender 4.0.2
# www.blender.org
mtllib part4.mtl
o Pole_Cylinder
v -9.433460 0.151133 16.967791
v -9.433462 4.313940 16.967791
v -9.378031 0.151133 16.871780
v -9.378031 4.313940 16.871780
v -9.267169 0.151133 16.871780
v -9.267170 4.313940 16.871780
v -9.211739 0.151133 16.967791
v -9.211739 4.313940 16.967791
v -9.267169 0.151133 17.063799
v -9.267170 4.313940 17.063799
v -9.378031 0.151133 17.063799
v -9.378031 4.313940 17.063799
v -9.433462 0.567414 16.967791
v -9.378031 0.567414 16.871780
v -9.267169 0.567414 16.871780
v -9.211739 0.567414 16.967791
v -9.267169 0.567414 17.063799
v -9.378031 0.567414 17.063799
v -9.267170 3.564635 16.871780
v -9.267170 3.939288 16.871780
v -9.378031 1.316719 17.063799
v -9.378031 1.691372 17.063799
v -9.267170 3.564635 17.063799
v -9.267170 3.939288 17.063799
v -9.433462 2.815329 16.967791
v -9.433462 3.189982 16.967791
v -9.433462 2.066024 16.967791
v -9.433462 2.440677 16.967791
v -9.267170 2.815329 17.063799
v -9.267170 3.189982 17.063799
v -9.267169 2.066024 17.063799
v -9.267168 2.440677 17.063799
v -9.267169 1.316719 16.871780
v -9.267169 1.691372 16.871780
v -9.267169 2.066024 16.871780
v -9.267169 2.440677 16.871780
v -9.378031 1.316719 16.871780
v -9.378031 1.691372 16.871780
v -9.211739 3.564635 16.967791
v -9.211739 3.939288 16.967791
v -9.378031 2.815329 16.871780
v -9.378031 3.189982 16.871780
v -9.378031 2.066024 16.871780
v -9.378031 2.440677 16.871780
v -9.378031 0.942067 17.063799
v -9.267169 0.942067 17.063799
v -9.378031 3.564635 16.871780
v -9.378031 3.939288 16.871780
v -9.211739 1.316719 16.967791
v -9.211739 1.691372 16.967791
v -9.211739 0.942067 16.967791
v -9.267169 0.942067 16.871780
v -9.378031 0.942067 16.871780
v -9.433462 0.942067 16.967791
v -9.211739 2.066024 16.967791
v -9.211739 2.440677 16.967791
v -9.267170 2.815329 16.871780
v -9.267170 3.189982 16.871780
v -9.433462 3.564635 16.967791
v -9.433462 3.939288 16.967791
v -9.211739 2.815329 16.967791
v -9.211739 3.189982 16.967791
v -9.378031 2.066024 17.063799
v -9.378031 2.440677 17.063799
v -9.267169 1.316719 17.063799
v -9.267169 1.691372 17.063799
v -9.433462 1.691372 16.967791
v -9.433462 1.316719 16.967791
v -9.378031 3.939288 17.063799
v -9.378031 3.564635 17.063799
v -9.378031 3.189982 17.063799
v -9.378031 2.815329 17.063799
vn -0.8660 -0.0000 -0.5000
vn -0.0000 -0.0000 -1.0000
vn 0.8660 -0.0000 -0.5000
vn 0.8660 -0.0000 0.5000
vn -0.0000 1.0000 -0.0000
vn -0.8660 -0.0000 0.5000
vn -0.0000 -0.0000 1.0000
vn -0.0000 -1.0000 -0.0000
vt 0.000000 0.000000
vt 1.000000 0.000000
vt 1.000000 1.000000
vt 0.000000 1.000000
vt 0.500000 1.000000
vt 0.933013 0.750000
vt 0.933013 0.250000
vt 0.500000 0.000000
vt 0.066987 0.250000
vt 0.066987 0.750000
s 0
usemtl Material.010
f 60/1/1 2/2/1 4/3/1 48/4/1
f 48/1/2 4/2/2 6/3/2 20/4/2
f 20/1/3 6/2/3 8/3/3 40/4/3
f 40/1/4 8/2/4 10/3/4 24/4/4
f 4/5/5 2/6/5 12/7/5 10/8/5 8/9/5 6/10/5
f 69/1/6 12/2/6 2/3/6 60/4/6
f 24/1/7 10/2/7 12/3/7 69/4/7
f 1/5/8 3/6/8 5/7/8 7/8/8 9/9/8 11/10/8
f 1/1/1 13/2/1 14/3/1 3/4/1
f 3/1/2 14/2/2 15/3/2 5/4/2
f 5/1/3 15/2/3 16/3/3 7/4/3
f 7/1/4 16/2/4 17/3/4 9/4/4
f 11/1/6 18/2/6 13/3/6 1/4/6
f 9/1/7 17/2/7 18/3/7 11/4/7
f 17/1/7 46/2/7 45/3/7 18/4/7
f 25/1/1 26/2/1 42/3/1 41/4/1
f 26/1/1 59/2/1 47/3/1 42/4/1
f 16/1/4 51/2/4 46/3/4 17/4/4
f 15/1/3 52/2/3 51/3/3 16/4/3
f 53/1/2 37/2/2 33/3/2 52/4/2
f 14/1/2 53/2/2 52/3/2 15/4/2
f 28/1/1 25/2/1 41/3/1 44/4/1
f 13/1/1 54/2/1 53/3/1 14/4/1
f 67/1/1 27/2/1 43/3/1 38/4/1
f 38/1/2 43/2/2 35/3/2 34/4/2
f 18/1/6 45/2/6 54/3/6 13/4/6
f 27/1/1 28/2/1 44/3/1 43/4/1
f 59/1/1 60/2/1 48/3/1 47/4/1
f 68/1/1 67/2/1 38/3/1 37/4/1
f 37/1/2 38/2/2 34/3/2 33/4/2
f 54/1/1 68/2/1 37/3/1 53/4/1
f 43/1/2 44/2/2 36/3/2 35/4/2
f 44/1/2 41/2/2 57/3/2 36/4/2
f 41/1/2 42/2/2 58/3/2 57/4/2
f 42/1/2 47/2/2 19/3/2 58/4/2
f 47/1/2 48/2/2 20/3/2 19/4/2
f 52/1/3 33/2/3 49/3/3 51/4/3
f 33/1/3 34/2/3 50/3/3 49/4/3
f 34/1/3 35/2/3 55/3/3 50/4/3
f 35/1/3 36/2/3 56/3/3 55/4/3
f 36/1/3 57/2/3 61/3/3 56/4/3
f 57/1/3 58/2/3 62/3/3 61/4/3
f 58/1/3 19/2/3 39/3/3 62/4/3
f 19/1/3 20/2/3 40/3/3 39/4/3
f 51/1/4 49/2/4 65/3/4 46/4/4
f 49/1/4 50/2/4 66/3/4 65/4/4
f 50/1/4 55/2/4 31/3/4 66/4/4
f 55/1/4 56/2/4 32/3/4 31/4/4
f 56/1/4 61/2/4 29/3/4 32/4/4
f 61/1/4 62/2/4 30/3/4 29/4/4
f 62/1/4 39/2/4 23/3/4 30/4/4
f 39/1/4 40/2/4 24/3/4 23/4/4
f 45/1/6 21/2/6 68/3/6 54/4/6
f 21/1/6 22/2/6 67/3/6 68/4/6
f 22/1/6 63/2/6 27/3/6 67/4/6
f 63/1/6 64/2/6 28/3/6 27/4/6
f 64/1/6 72/2/6 25/3/6 28/4/6
f 72/1/6 71/2/6 26/3/6 25/4/6
f 71/1/6 70/2/6 59/3/6 26/4/6
f 70/1/6 69/2/6 60/3/6 59/4/6
f 46/1/7 65/2/7 21/3/7 45/4/7
f 65/1/7 66/2/7 22/3/7 21/4/7
f 66/1/7 31/2/7 63/3/7 22/4/7
f 31/1/7 32/2/7 64/3/7 63/4/7
f 32/1/7 29/2/7 72/3/7 64/4/7
f 29/1/7 30/2/7 71/3/7 72/4/7
f 30/1/7 23/2/7 70/3/7 71/4/7
f 23/1/7 24/2/7 69/3/7 70/4/7
